<?xml version="1.0" encoding="UTF-8"?>
<!DOCTYPE svg PUBLIC "-//W3C//DTD SVG 1.1//EN" "http://www.w3.org/Graphics/SVG/1.1/DTD/svg11.dtd">
<svg xmlns="http://www.w3.org/2000/svg" version="1.1" width="1803px" height="510px" style="shape-rendering:geometricPrecision; text-rendering:geometricPrecision; image-rendering:optimizeQuality; fill-rule:evenodd; clip-rule:evenodd" xmlns:xlink="http://www.w3.org/1999/xlink">
<g><path style="opacity:1" fill="#f9f9f9" d="M 569.5,14.5 C 661.486,10.6828 718.319,53.3494 740,142.5C 742.522,154.716 744.188,167.049 745,179.5C 745.667,229.5 745.667,279.5 745,329.5C 743.859,370.926 731.192,408.259 707,441.5C 678.647,473.756 642.814,490.923 599.5,493C 563.171,496.335 528.838,489.669 496.5,473C 458.853,448.936 435.686,414.77 427,370.5C 423.69,354.663 421.69,338.663 421,322.5C 420.08,272.819 420.414,223.152 422,173.5C 424.684,130.414 439.684,92.4139 467,59.5C 495.39,31.4226 529.557,16.4226 569.5,14.5 Z M 574.5,66.5 C 625.227,65.0819 659.393,88.0819 677,135.5C 682.394,151.41 685.727,167.743 687,184.5C 687.667,231.167 687.667,277.833 687,324.5C 685.726,351.647 678.393,376.981 665,400.5C 649.465,424.667 627.299,438.167 598.5,441C 542.711,446.872 505.878,423.372 488,370.5C 482.769,353.217 479.769,335.55 479,317.5C 478.333,275.5 478.333,233.5 479,191.5C 479.822,159.858 488.822,130.858 506,104.5C 523.476,82.0152 546.31,69.3485 574.5,66.5 Z"/></g>
<g><path style="opacity:1" fill="#f9f9f9" d="M 36.5,157.5 C 57.1774,157.167 77.8441,157.5 98.5,158.5C 125.374,203.083 152.374,247.583 179.5,292C 182.882,292.824 186.216,292.657 189.5,291.5C 216.374,246.917 243.374,202.417 270.5,158C 290.831,157.5 311.164,157.333 331.5,157.5C 331.509,159.308 331.009,160.975 330,162.5C 299.333,211.833 268.667,261.167 238,310.5C 236,314.833 236,319.167 238,323.5C 272.522,376.829 306.355,430.496 339.5,484.5C 318.489,484.833 297.489,484.5 276.5,483.5C 247.292,436.249 217.959,389.083 188.5,342C 185.24,341.216 182.073,341.383 179,342.5C 149.833,389.667 120.667,436.833 91.5,484C 70.5,484.667 49.5,484.667 28.5,484C 61.2921,431.58 94.4587,379.413 128,327.5C 130.443,324.395 131.943,320.895 132.5,317C 132.458,315.033 131.958,313.199 131,311.5C 98.8512,260.528 67.3512,209.195 36.5,157.5 Z"/></g>
<g><path style="opacity:1" fill="#f9f9f9" d="M 1754.5,205.5 C 1762.5,205.5 1770.5,205.5 1778.5,205.5C 1778.5,267.5 1778.5,329.5 1778.5,391.5C 1770.5,391.5 1762.5,391.5 1754.5,391.5C 1754.5,329.5 1754.5,267.5 1754.5,205.5 Z"/></g>
<g><path style="opacity:1" fill="#f9f9f9" d="M 575.5,211.5 C 602.006,209.484 618.839,221.151 626,246.5C 627.577,276.922 613.244,293.922 583,297.5C 556.833,294.667 542.333,280.167 539.5,254C 541.653,231.356 553.653,217.19 575.5,211.5 Z"/></g>
<g><path style="opacity:1" fill="#f9f9f9" d="M 1236.5,217.5 C 1244.17,217.5 1251.83,217.5 1259.5,217.5C 1259.5,228.833 1259.5,240.167 1259.5,251.5C 1269.5,251.5 1279.5,251.5 1289.5,251.5C 1289.5,257.833 1289.5,264.167 1289.5,270.5C 1279.5,270.5 1269.5,270.5 1259.5,270.5C 1259.06,300.532 1259.56,330.532 1261,360.5C 1262.11,365.245 1264.95,368.412 1269.5,370C 1275.48,371.209 1281.48,371.709 1287.5,371.5C 1289.3,377.049 1290.64,382.715 1291.5,388.5C 1291.29,389.994 1290.62,391.161 1289.5,392C 1270.87,396.888 1255.04,392.388 1242,378.5C 1239.57,375.205 1237.9,371.538 1237,367.5C 1235.54,335.202 1235.04,302.869 1235.5,270.5C 1228.5,270.5 1221.5,270.5 1214.5,270.5C 1214.19,264.242 1214.52,258.076 1215.5,252C 1222.16,251.5 1228.83,251.334 1235.5,251.5C 1235.19,240.086 1235.52,228.752 1236.5,217.5 Z"/></g>
<g><path style="opacity:1" fill="#f9f9f9" d="M 1045.5,248.5 C 1050.86,248.472 1056.2,248.806 1061.5,249.5C 1061.5,257.167 1061.5,264.833 1061.5,272.5C 1042.83,267.886 1027.99,273.219 1017,288.5C 1015.42,291.657 1014.42,294.991 1014,298.5C 1013.5,329.498 1013.33,360.498 1013.5,391.5C 1005.83,391.5 998.167,391.5 990.5,391.5C 990.5,344.833 990.5,298.167 990.5,251.5C 997.833,251.5 1005.17,251.5 1012.5,251.5C 1012.33,257.509 1012.5,263.509 1013,269.5C 1020.41,257.056 1031.24,250.056 1045.5,248.5 Z"/></g>
<g><path style="opacity:1" fill="#f9f9f9" d="M 890.5,249.5 C 925.192,246.418 947.692,261.418 958,294.5C 963.246,316.142 962.246,337.475 955,358.5C 940.937,387.948 917.771,399.448 885.5,393C 874.875,389.375 867.041,382.542 862,372.5C 861.5,396.164 861.333,419.831 861.5,443.5C 853.5,443.5 845.5,443.5 837.5,443.5C 837.5,379.5 837.5,315.5 837.5,251.5C 844.841,251.334 852.174,251.5 859.5,252C 860.314,258.753 860.814,265.586 861,272.5C 867.493,260.36 877.326,252.693 890.5,249.5 Z M 891.5,270.5 C 917.948,269.435 933.115,282.102 937,308.5C 940.238,327.645 936.571,345.311 926,361.5C 912.16,374.895 896.66,377.061 879.5,368C 869.301,358.77 863.468,347.27 862,333.5C 860.456,319.85 861.789,306.517 866,293.5C 870.759,281.56 879.259,273.893 891.5,270.5 Z"/></g>
<g><path style="opacity:1" fill="#f9f9f9" d="M 1125.5,249.5 C 1167.48,246.648 1191.98,265.981 1199,307.5C 1202.2,329.131 1198.53,349.464 1188,368.5C 1168.21,393.313 1143.04,400.813 1112.5,391C 1089.46,380.121 1076.29,361.954 1073,336.5C 1069.75,315.346 1073.42,295.346 1084,276.5C 1094.07,261.583 1107.9,252.583 1125.5,249.5 Z M 1128.5,270.5 C 1149,268.181 1163.17,276.514 1171,295.5C 1177.51,315.108 1176.84,334.442 1169,353.5C 1160.01,369.245 1146.51,375.745 1128.5,373C 1117.13,370.304 1108.63,363.804 1103,353.5C 1095.16,334.43 1094.49,315.096 1101,295.5C 1106.3,282.693 1115.46,274.36 1128.5,270.5 Z"/></g>
<g><path style="opacity:1" fill="#f9f9f9" d="M 1365.5,249.5 C 1407.48,246.648 1431.98,265.981 1439,307.5C 1442.33,329.186 1438.66,349.519 1428,368.5C 1410.51,391.11 1387.68,399.277 1359.5,393C 1332.13,384.619 1316.63,366.119 1313,337.5C 1308.94,312.513 1314.27,289.846 1329,269.5C 1339.02,258.743 1351.19,252.076 1365.5,249.5 Z M 1368.5,270.5 C 1391.03,268.597 1405.69,278.431 1412.5,300C 1417.39,318.248 1416.22,336.082 1409,353.5C 1400.01,369.245 1386.51,375.745 1368.5,373C 1357.13,370.304 1348.63,363.804 1343,353.5C 1335.16,334.43 1334.49,315.096 1341,295.5C 1346.3,282.693 1355.46,274.36 1368.5,270.5 Z"/></g>
<g><path style="opacity:1" fill="#f9f9f9" d="M 1512.5,249.5 C 1533.82,246.447 1552.32,252.114 1568,266.5C 1574.86,274.567 1578.69,283.9 1579.5,294.5C 1571.47,294.831 1563.47,294.498 1555.5,293.5C 1547.7,274.431 1533.7,267.264 1513.5,272C 1499.86,276.971 1491.03,286.471 1487,300.5C 1482.09,319.957 1484.09,338.624 1493,356.5C 1506.6,374.365 1523.44,378.198 1543.5,368C 1549.61,363.609 1553.61,357.776 1555.5,350.5C 1563.47,349.502 1571.47,349.169 1579.5,349.5C 1576.66,372.515 1563.99,387.015 1541.5,393C 1496.94,400.101 1470.11,381.601 1461,337.5C 1456.22,308.841 1463.72,284.007 1483.5,263C 1492.24,256.294 1501.91,251.794 1512.5,249.5 Z"/></g>
<g><path style="opacity:1" fill="#f9f9f9" d="M 1652.5,249.5 C 1694.48,246.648 1718.98,265.981 1726,307.5C 1729.33,329.186 1725.66,349.519 1715,368.5C 1697.55,391.098 1674.72,399.264 1646.5,393C 1619.13,384.619 1603.63,366.119 1600,337.5C 1596.08,313.088 1601.08,290.755 1615,270.5C 1625.18,259.167 1637.68,252.167 1652.5,249.5 Z M 1655.5,270.5 C 1678.03,268.597 1692.69,278.431 1699.5,300C 1704.39,318.248 1703.22,336.082 1696,353.5C 1687.01,369.245 1673.51,375.745 1655.5,373C 1644.13,370.304 1635.63,363.804 1630,353.5C 1622.16,334.43 1621.49,315.096 1628,295.5C 1633.3,282.693 1642.46,274.36 1655.5,270.5 Z"/></g>
</svg>
