<?xml version="1.0" encoding="UTF-8"?>
<!DOCTYPE svg PUBLIC "-//W3C//DTD SVG 1.1//EN" "http://www.w3.org/Graphics/SVG/1.1/DTD/svg11.dtd">
<svg xmlns="http://www.w3.org/2000/svg" version="1.1" width="1806px" height="540px" style="shape-rendering:geometricPrecision; text-rendering:geometricPrecision; image-rendering:optimizeQuality; fill-rule:evenodd; clip-rule:evenodd" xmlns:xlink="http://www.w3.org/1999/xlink">
<g><path style="opacity:1" fill="#000000" d="M 560.5,29.5 C 652.486,25.6828 709.319,68.3494 731,157.5C 733.522,169.716 735.188,182.049 736,194.5C 736.667,244.5 736.667,294.5 736,344.5C 734.859,385.926 722.192,423.259 698,456.5C 669.647,488.756 633.814,505.923 590.5,508C 554.171,511.335 519.838,504.669 487.5,488C 449.853,463.936 426.686,429.77 418,385.5C 414.69,369.663 412.69,353.663 412,337.5C 411.08,287.819 411.414,238.152 413,188.5C 415.684,145.414 430.684,107.414 458,74.5C 486.39,46.4226 520.557,31.4226 560.5,29.5 Z M 565.5,81.5 C 616.227,80.0819 650.393,103.082 668,150.5C 673.394,166.41 676.727,182.743 678,199.5C 678.667,246.167 678.667,292.833 678,339.5C 676.726,366.647 669.393,391.981 656,415.5C 640.465,439.667 618.299,453.167 589.5,456C 533.711,461.872 496.878,438.372 479,385.5C 473.769,368.217 470.769,350.55 470,332.5C 469.333,290.5 469.333,248.5 470,206.5C 470.822,174.858 479.822,145.858 497,119.5C 514.476,97.0152 537.31,84.3485 565.5,81.5 Z"/></g>
<g><path style="opacity:1" fill="#000000" d="M 27.5,172.5 C 48.1774,172.167 68.8441,172.5 89.5,173.5C 116.374,218.083 143.374,262.583 170.5,307C 173.882,307.824 177.216,307.657 180.5,306.5C 207.374,261.917 234.374,217.417 261.5,173C 281.831,172.5 302.164,172.333 322.5,172.5C 322.509,174.308 322.009,175.975 321,177.5C 290.333,226.833 259.667,276.167 229,325.5C 227,329.833 227,334.167 229,338.5C 263.522,391.829 297.355,445.496 330.5,499.5C 309.489,499.833 288.489,499.5 267.5,498.5C 238.292,451.249 208.959,404.083 179.5,357C 176.24,356.216 173.073,356.383 170,357.5C 140.833,404.667 111.667,451.833 82.5,499C 61.5,499.667 40.5,499.667 19.5,499C 52.2921,446.58 85.4587,394.413 119,342.5C 121.443,339.395 122.943,335.895 123.5,332C 123.458,330.033 122.958,328.199 122,326.5C 89.8512,275.528 58.3512,224.195 27.5,172.5 Z"/></g>
<g><path style="opacity:1" fill="#000000" d="M 1745.5,220.5 C 1753.5,220.5 1761.5,220.5 1769.5,220.5C 1769.5,282.5 1769.5,344.5 1769.5,406.5C 1761.5,406.5 1753.5,406.5 1745.5,406.5C 1745.5,344.5 1745.5,282.5 1745.5,220.5 Z"/></g>
<g><path style="opacity:1" fill="#000000" d="M 566.5,226.5 C 593.006,224.484 609.839,236.151 617,261.5C 618.577,291.922 604.244,308.922 574,312.5C 547.833,309.667 533.333,295.167 530.5,269C 532.653,246.356 544.653,232.19 566.5,226.5 Z"/></g>
<g><path style="opacity:1" fill="#000000" d="M 1228.5,232.5 C 1235.75,232.187 1242.92,232.52 1250,233.5C 1250.5,244.495 1250.67,255.495 1250.5,266.5C 1260.5,266.5 1270.5,266.5 1280.5,266.5C 1280.5,272.833 1280.5,279.167 1280.5,285.5C 1270.5,285.5 1260.5,285.5 1250.5,285.5C 1250.06,315.532 1250.56,345.532 1252,375.5C 1253.1,380.206 1255.94,383.373 1260.5,385C 1266.49,386.323 1272.49,386.823 1278.5,386.5C 1280.09,392.099 1281.42,397.765 1282.5,403.5C 1282.29,404.994 1281.62,406.161 1280.5,407C 1260.8,412.21 1244.64,407.043 1232,391.5C 1230.39,388.618 1229.06,385.618 1228,382.5C 1226.55,350.198 1226.05,317.865 1226.5,285.5C 1219.5,285.5 1212.5,285.5 1205.5,285.5C 1205.19,279.242 1205.52,273.076 1206.5,267C 1213.16,266.5 1219.83,266.334 1226.5,266.5C 1225.89,254.913 1226.56,243.58 1228.5,232.5 Z"/></g>
<g><path style="opacity:1" fill="#000000" d="M 1036.5,263.5 C 1041.85,263.569 1047.19,263.902 1052.5,264.5C 1052.5,272.167 1052.5,279.833 1052.5,287.5C 1038.59,284.227 1025.93,286.727 1014.5,295C 1009.62,299.889 1006.45,305.722 1005,312.5C 1004.5,343.832 1004.33,375.165 1004.5,406.5C 996.833,406.5 989.167,406.5 981.5,406.5C 981.5,359.833 981.5,313.167 981.5,266.5C 988.833,266.5 996.167,266.5 1003.5,266.5C 1003.33,272.509 1003.5,278.509 1004,284.5C 1011.39,272.06 1022.23,265.06 1036.5,263.5 Z"/></g>
<g><path style="opacity:1" fill="#000000" d="M 881.5,264.5 C 914.737,261.276 936.904,275.276 948,306.5C 955.32,332.289 953.32,357.289 942,381.5C 925.854,406.332 903.354,414.832 874.5,407C 864.786,403.285 857.619,396.785 853,387.5C 852.667,410.833 852.333,434.167 852,457.5C 844.253,458.482 836.42,458.815 828.5,458.5C 828.5,394.5 828.5,330.5 828.5,266.5C 835.841,266.334 843.174,266.5 850.5,267C 851.314,273.753 851.814,280.586 852,287.5C 858.822,275.83 868.656,268.163 881.5,264.5 Z M 882.5,285.5 C 908.948,284.435 924.115,297.102 928,323.5C 931.238,342.645 927.571,360.311 917,376.5C 907.707,386.704 896.207,390.537 882.5,388C 868.305,383.511 859.139,374.011 855,359.5C 851.414,343.073 851.747,326.74 856,310.5C 860.573,297.421 869.407,289.087 882.5,285.5 Z"/></g>
<g><path style="opacity:1" fill="#000000" d="M 1116.5,264.5 C 1158.46,261.729 1182.96,281.062 1190,322.5C 1193.58,346.054 1188.91,367.721 1176,387.5C 1158.32,407.054 1136.48,413.888 1110.5,408C 1090.78,402.089 1076.94,389.589 1069,370.5C 1061.67,348.172 1061.67,325.838 1069,303.5C 1078.18,282.135 1094.01,269.135 1116.5,264.5 Z M 1119.5,285.5 C 1137.5,283.248 1151,289.915 1160,305.5C 1167.85,324.894 1168.52,344.56 1162,364.5C 1149.67,388.551 1131.17,394.718 1106.5,383C 1095.48,374.138 1089.32,362.638 1088,348.5C 1085.32,330.877 1088.66,314.544 1098,299.5C 1103.79,292.505 1110.96,287.838 1119.5,285.5 Z"/></g>
<g><path style="opacity:1" fill="#000000" d="M 1356.5,264.5 C 1398.46,261.729 1422.96,281.062 1430,322.5C 1433.58,346.054 1428.91,367.721 1416,387.5C 1395.91,408.861 1371.74,415.027 1343.5,406C 1320.46,395.121 1307.29,376.954 1304,351.5C 1299.96,326.345 1305.62,303.678 1321,283.5C 1330.85,273.327 1342.68,266.994 1356.5,264.5 Z M 1359.5,285.5 C 1380,283.181 1394.17,291.514 1402,310.5C 1408.24,329.298 1407.91,347.965 1401,366.5C 1388.16,388.925 1369.99,394.425 1346.5,383C 1335.48,374.138 1329.32,362.638 1328,348.5C 1325.32,330.877 1328.66,314.544 1338,299.5C 1343.79,292.505 1350.96,287.838 1359.5,285.5 Z"/></g>
<g><path style="opacity:1" fill="#000000" d="M 1504.5,264.5 C 1527.45,261.536 1546.62,268.536 1562,285.5C 1566.92,292.755 1569.75,300.755 1570.5,309.5C 1562.47,309.831 1554.47,309.498 1546.5,308.5C 1538.7,289.431 1524.7,282.264 1504.5,287C 1490.86,291.971 1482.03,301.471 1478,315.5C 1475.09,328.421 1474.75,341.421 1477,354.5C 1485.92,385.144 1505.09,394.644 1534.5,383C 1540.61,378.609 1544.61,372.776 1546.5,365.5C 1554.47,364.502 1562.47,364.169 1570.5,364.5C 1566.77,390.06 1552.11,404.893 1526.5,409C 1491.11,413.231 1467.28,398.731 1455,365.5C 1449.19,344.755 1449.86,324.088 1457,303.5C 1466.12,282.198 1481.96,269.198 1504.5,264.5 Z"/></g>
<g><path style="opacity:1" fill="#000000" d="M 1643.5,264.5 C 1685.42,261.713 1709.92,281.047 1717,322.5C 1720.58,346.059 1715.91,367.726 1703,387.5C 1685.31,407.055 1663.48,413.889 1637.5,408C 1610.11,399.108 1594.61,380.275 1591,351.5C 1586.96,326.345 1592.62,303.678 1608,283.5C 1617.85,273.327 1629.68,266.994 1643.5,264.5 Z M 1646.5,285.5 C 1667,283.181 1681.17,291.514 1689,310.5C 1695.24,329.298 1694.91,347.965 1688,366.5C 1675.16,388.925 1656.99,394.425 1633.5,383C 1622.48,374.138 1616.32,362.638 1615,348.5C 1612.32,330.877 1615.66,314.544 1625,299.5C 1630.79,292.505 1637.96,287.838 1646.5,285.5 Z"/></g>
</svg>
